<svg width="199" height="130" viewBox="0 0 199 130" fill="none" xmlns="http://www.w3.org/2000/svg">
<rect x="31" y="27" width="168" height="68" rx="18" fill="#434343"/>
<g filter="url(#filter0_d_241_103)">
<rect x="40" y="36" width="50" height="50" rx="10" fill="white"/>
<path d="M59.25 80C62.7 80 65.5 77.1627 65.5 73.6667V67.3334H59.25C55.8 67.3334 53 70.1707 53 73.6667C53 77.1627 55.8 80 59.25 80Z" fill="#0ACF83"/>
<path d="M53 60.9999C53 57.504 55.8 54.6666 59.25 54.6666H65.5V67.3333H59.25C55.8 67.3333 53 64.4959 53 60.9999Z" fill="#A259FF"/>
<path d="M53 48.3333C53 44.8373 55.8 42 59.25 42H65.5V54.6667H59.25C55.8 54.6667 53 51.8293 53 48.3333Z" fill="#F24E1E"/>
<path d="M65.5 42H71.75C75.2 42 78 44.8373 78 48.3333C78 51.8293 75.2 54.6667 71.75 54.6667H65.5V42Z" fill="#FF7262"/>
<path d="M78 60.9999C78 64.4959 75.2 67.3333 71.75 67.3333C68.3 67.3333 65.5 64.4959 65.5 60.9999C65.5 57.504 68.3 54.6666 71.75 54.6666C75.2 54.6666 78 57.504 78 60.9999Z" fill="#1ABCFE"/>
<rect x="40.5" y="36.5" width="49" height="49" rx="9.5" stroke="white"/>
</g>
<path d="M114 52.248V54.96H107.016V59.256H112.368V61.92H107.016V69H103.656V52.248H114ZM118.087 54.12C117.495 54.12 116.999 53.936 116.599 53.568C116.215 53.184 116.023 52.712 116.023 52.152C116.023 51.592 116.215 51.128 116.599 50.76C116.999 50.376 117.495 50.184 118.087 50.184C118.679 50.184 119.167 50.376 119.551 50.76C119.951 51.128 120.151 51.592 120.151 52.152C120.151 52.712 119.951 53.184 119.551 53.568C119.167 53.936 118.679 54.12 118.087 54.12ZM119.743 55.704V69H116.383V55.704H119.743ZM128.27 55.488C129.262 55.488 130.134 55.688 130.886 56.088C131.638 56.472 132.23 56.976 132.662 57.6V55.704H136.046V69.096C136.046 70.328 135.798 71.424 135.302 72.384C134.806 73.36 134.062 74.128 133.07 74.688C132.078 75.264 130.878 75.552 129.47 75.552C127.582 75.552 126.03 75.112 124.814 74.232C123.614 73.352 122.934 72.152 122.774 70.632H126.11C126.286 71.24 126.662 71.72 127.238 72.072C127.83 72.44 128.542 72.624 129.374 72.624C130.35 72.624 131.142 72.328 131.75 71.736C132.358 71.16 132.662 70.28 132.662 69.096V67.032C132.23 67.656 131.63 68.176 130.862 68.592C130.11 69.008 129.246 69.216 128.27 69.216C127.15 69.216 126.126 68.928 125.198 68.352C124.27 67.776 123.534 66.968 122.99 65.928C122.462 64.872 122.198 63.664 122.198 62.304C122.198 60.96 122.462 59.768 122.99 58.728C123.534 57.688 124.262 56.888 125.174 56.328C126.102 55.768 127.134 55.488 128.27 55.488ZM132.662 62.352C132.662 61.536 132.502 60.84 132.182 60.264C131.862 59.672 131.43 59.224 130.886 58.92C130.342 58.6 129.758 58.44 129.134 58.44C128.51 58.44 127.934 58.592 127.406 58.896C126.878 59.2 126.446 59.648 126.11 60.24C125.79 60.816 125.63 61.504 125.63 62.304C125.63 63.104 125.79 63.808 126.11 64.416C126.446 65.008 126.878 65.464 127.406 65.784C127.95 66.104 128.526 66.264 129.134 66.264C129.758 66.264 130.342 66.112 130.886 65.808C131.43 65.488 131.862 65.04 132.182 64.464C132.502 63.872 132.662 63.168 132.662 62.352ZM155.84 55.512C157.472 55.512 158.784 56.016 159.776 57.024C160.784 58.016 161.288 59.408 161.288 61.2V69H157.928V61.656C157.928 60.616 157.664 59.824 157.136 59.28C156.608 58.72 155.888 58.44 154.976 58.44C154.064 58.44 153.336 58.72 152.792 59.28C152.264 59.824 152 60.616 152 61.656V69H148.64V61.656C148.64 60.616 148.376 59.824 147.848 59.28C147.32 58.72 146.6 58.44 145.688 58.44C144.76 58.44 144.024 58.72 143.48 59.28C142.952 59.824 142.688 60.616 142.688 61.656V69H139.328V55.704H142.688V57.312C143.12 56.752 143.672 56.312 144.344 55.992C145.032 55.672 145.784 55.512 146.6 55.512C147.64 55.512 148.568 55.736 149.384 56.184C150.2 56.616 150.832 57.24 151.28 58.056C151.712 57.288 152.336 56.672 153.152 56.208C153.984 55.744 154.88 55.512 155.84 55.512ZM163.612 62.304C163.612 60.96 163.876 59.768 164.404 58.728C164.948 57.688 165.676 56.888 166.588 56.328C167.516 55.768 168.548 55.488 169.684 55.488C170.676 55.488 171.54 55.688 172.276 56.088C173.028 56.488 173.628 56.992 174.076 57.6V55.704H177.46V69H174.076V67.056C173.644 67.68 173.044 68.2 172.276 68.616C171.524 69.016 170.652 69.216 169.66 69.216C168.54 69.216 167.516 68.928 166.588 68.352C165.676 67.776 164.948 66.968 164.404 65.928C163.876 64.872 163.612 63.664 163.612 62.304ZM174.076 62.352C174.076 61.536 173.916 60.84 173.596 60.264C173.276 59.672 172.844 59.224 172.3 58.92C171.756 58.6 171.172 58.44 170.548 58.44C169.924 58.44 169.348 58.592 168.82 58.896C168.292 59.2 167.86 59.648 167.524 60.24C167.204 60.816 167.044 61.504 167.044 62.304C167.044 63.104 167.204 63.808 167.524 64.416C167.86 65.008 168.292 65.464 168.82 65.784C169.364 66.104 169.94 66.264 170.548 66.264C171.172 66.264 171.756 66.112 172.3 65.808C172.844 65.488 173.276 65.04 173.596 64.464C173.916 63.872 174.076 63.168 174.076 62.352Z" fill="white"/>
<defs>
<filter id="filter0_d_241_103" x="0" y="0" width="130" height="130" filterUnits="userSpaceOnUse" color-interpolation-filters="sRGB">
<feFlood flood-opacity="0" result="BackgroundImageFix"/>
<feColorMatrix in="SourceAlpha" type="matrix" values="0 0 0 0 0 0 0 0 0 0 0 0 0 0 0 0 0 0 127 0" result="hardAlpha"/>
<feOffset dy="4"/>
<feGaussianBlur stdDeviation="20"/>
<feComposite in2="hardAlpha" operator="out"/>
<feColorMatrix type="matrix" values="0 0 0 0 0.0367917 0 0 0 0 0.0348958 0 0 0 0 0.0484375 0 0 0 0.1 0"/>
<feBlend mode="normal" in2="BackgroundImageFix" result="effect1_dropShadow_241_103"/>
<feBlend mode="normal" in="SourceGraphic" in2="effect1_dropShadow_241_103" result="shape"/>
</filter>
</defs>
</svg>
