<svg width="256" height="130" viewBox="0 0 256 130" fill="none" xmlns="http://www.w3.org/2000/svg">
<rect x="31" y="27" width="225" height="68" rx="18" fill="#434343"/>
<g filter="url(#filter0_d_241_87)">
<rect x="40" y="36" width="50" height="50" rx="10" fill="white"/>
<path d="M78.8411 46.9984H51.0634V74.7762H78.8411V46.9984Z" fill="#F7DF1E"/>
<path d="M69.7229 68.6999C70.2825 69.6135 71.0104 70.285 72.2979 70.285C73.3795 70.285 74.0704 69.7444 74.0704 68.9975C74.0704 68.1024 73.3605 67.7854 72.17 67.2647L71.5175 66.9847C69.6339 66.1822 68.3825 65.177 68.3825 63.0517C68.3825 61.0941 69.8742 59.6038 72.2053 59.6038C73.8649 59.6038 75.058 60.1814 75.9178 61.6937L73.8852 62.9988C73.4377 62.1964 72.9549 61.8802 72.2053 61.8802C71.4407 61.8802 70.9562 62.3652 70.9562 62.9988C70.9562 63.7819 71.4412 64.0989 72.5611 64.5839L73.2137 64.8635C75.4315 65.8145 76.6837 66.7841 76.6837 68.964C76.6837 71.3141 74.8376 72.6016 72.3583 72.6016C69.9341 72.6016 68.368 71.4464 67.6017 69.9322L69.7229 68.6999ZM60.502 68.9261C60.9121 69.6536 61.2851 70.2687 62.1819 70.2687C63.0395 70.2687 63.5805 69.9331 63.5805 68.6285V59.7528H66.1907V68.6637C66.1907 71.3665 64.6061 72.5967 62.293 72.5967C60.2031 72.5967 58.9928 71.5151 58.3773 70.2124L60.502 68.9261Z" fill="black"/>
<rect x="40.5" y="36.5" width="49" height="49" rx="9.5" stroke="white"/>
</g>
<path d="M113.424 52.248V64.008C113.424 65.64 112.952 66.912 112.008 67.824C111.064 68.72 109.8 69.168 108.216 69.168C106.616 69.168 105.32 68.704 104.328 67.776C103.352 66.848 102.864 65.552 102.864 63.888H106.224C106.24 64.608 106.408 65.168 106.728 65.568C107.064 65.968 107.544 66.168 108.168 66.168C108.776 66.168 109.24 65.976 109.56 65.592C109.88 65.208 110.04 64.68 110.04 64.008V52.248H113.424ZM116.479 62.304C116.479 60.96 116.743 59.768 117.271 58.728C117.816 57.688 118.544 56.888 119.456 56.328C120.384 55.768 121.416 55.488 122.552 55.488C123.544 55.488 124.408 55.688 125.144 56.088C125.896 56.488 126.496 56.992 126.944 57.6V55.704H130.328V69H126.944V67.056C126.512 67.68 125.912 68.2 125.144 68.616C124.392 69.016 123.52 69.216 122.528 69.216C121.408 69.216 120.384 68.928 119.456 68.352C118.544 67.776 117.816 66.968 117.271 65.928C116.743 64.872 116.479 63.664 116.479 62.304ZM126.944 62.352C126.944 61.536 126.784 60.84 126.464 60.264C126.144 59.672 125.712 59.224 125.168 58.92C124.624 58.6 124.04 58.44 123.416 58.44C122.792 58.44 122.216 58.592 121.688 58.896C121.16 59.2 120.728 59.648 120.392 60.24C120.072 60.816 119.912 61.504 119.912 62.304C119.912 63.104 120.072 63.808 120.392 64.416C120.728 65.008 121.16 65.464 121.688 65.784C122.232 66.104 122.808 66.264 123.416 66.264C124.04 66.264 124.624 66.112 125.168 65.808C125.712 65.488 126.144 65.04 126.464 64.464C126.784 63.872 126.944 63.168 126.944 62.352ZM139.153 65.904L142.513 55.704H146.089L141.169 69H137.089L132.193 55.704H135.793L139.153 65.904ZM147.112 62.304C147.112 60.96 147.376 59.768 147.904 58.728C148.448 57.688 149.176 56.888 150.088 56.328C151.016 55.768 152.048 55.488 153.184 55.488C154.176 55.488 155.04 55.688 155.776 56.088C156.528 56.488 157.128 56.992 157.576 57.6V55.704H160.96V69H157.576V67.056C157.144 67.68 156.544 68.2 155.776 68.616C155.024 69.016 154.152 69.216 153.16 69.216C152.04 69.216 151.016 68.928 150.088 68.352C149.176 67.776 148.448 66.968 147.904 65.928C147.376 64.872 147.112 63.664 147.112 62.304ZM157.576 62.352C157.576 61.536 157.416 60.84 157.096 60.264C156.776 59.672 156.344 59.224 155.8 58.92C155.256 58.6 154.672 58.44 154.048 58.44C153.424 58.44 152.848 58.592 152.32 58.896C151.792 59.2 151.36 59.648 151.024 60.24C150.704 60.816 150.544 61.504 150.544 62.304C150.544 63.104 150.704 63.808 151.024 64.416C151.36 65.008 151.792 65.464 152.32 65.784C152.864 66.104 153.44 66.264 154.048 66.264C154.672 66.264 155.256 66.112 155.8 65.808C156.344 65.488 156.776 65.04 157.096 64.464C157.416 63.872 157.576 63.168 157.576 62.352ZM170.026 69.168C168.858 69.168 167.802 68.968 166.858 68.568C165.93 68.168 165.194 67.592 164.65 66.84C164.106 66.088 163.826 65.2 163.81 64.176H167.41C167.458 64.864 167.698 65.408 168.13 65.808C168.578 66.208 169.186 66.408 169.954 66.408C170.738 66.408 171.354 66.224 171.802 65.856C172.25 65.472 172.474 64.976 172.474 64.368C172.474 63.872 172.322 63.464 172.018 63.144C171.714 62.824 171.33 62.576 170.866 62.4C170.418 62.208 169.794 62 168.994 61.776C167.906 61.456 167.018 61.144 166.33 60.84C165.658 60.52 165.074 60.048 164.578 59.424C164.098 58.784 163.858 57.936 163.858 56.88C163.858 55.888 164.106 55.024 164.602 54.288C165.098 53.552 165.794 52.992 166.69 52.608C167.586 52.208 168.61 52.008 169.762 52.008C171.49 52.008 172.89 52.432 173.962 53.28C175.05 54.112 175.65 55.28 175.762 56.784H172.066C172.034 56.208 171.786 55.736 171.322 55.368C170.874 54.984 170.274 54.792 169.522 54.792C168.866 54.792 168.338 54.96 167.938 55.296C167.554 55.632 167.362 56.12 167.362 56.76C167.362 57.208 167.506 57.584 167.794 57.888C168.098 58.176 168.466 58.416 168.898 58.608C169.346 58.784 169.97 58.992 170.77 59.232C171.858 59.552 172.746 59.872 173.434 60.192C174.122 60.512 174.714 60.992 175.21 61.632C175.706 62.272 175.954 63.112 175.954 64.152C175.954 65.048 175.722 65.88 175.258 66.648C174.794 67.416 174.114 68.032 173.218 68.496C172.322 68.944 171.258 69.168 170.026 69.168ZM178.003 62.352C178.003 60.976 178.283 59.776 178.843 58.752C179.403 57.712 180.179 56.912 181.171 56.352C182.163 55.776 183.299 55.488 184.579 55.488C186.227 55.488 187.587 55.904 188.659 56.736C189.747 57.552 190.475 58.704 190.843 60.192H187.219C187.027 59.616 186.699 59.168 186.235 58.848C185.787 58.512 185.227 58.344 184.555 58.344C183.595 58.344 182.835 58.696 182.275 59.4C181.715 60.088 181.435 61.072 181.435 62.352C181.435 63.616 181.715 64.6 182.275 65.304C182.835 65.992 183.595 66.336 184.555 66.336C185.915 66.336 186.803 65.728 187.219 64.512H190.843C190.475 65.952 189.747 67.096 188.659 67.944C187.571 68.792 186.211 69.216 184.579 69.216C183.299 69.216 182.163 68.936 181.171 68.376C180.179 67.8 179.403 67 178.843 65.976C178.283 64.936 178.003 63.728 178.003 62.352ZM196.664 57.768C197.096 57.064 197.656 56.512 198.344 56.112C199.048 55.712 199.848 55.512 200.744 55.512V59.04H199.856C198.8 59.04 198 59.288 197.456 59.784C196.928 60.28 196.664 61.144 196.664 62.376V69H193.304V55.704H196.664V57.768ZM204.712 54.12C204.12 54.12 203.624 53.936 203.224 53.568C202.84 53.184 202.648 52.712 202.648 52.152C202.648 51.592 202.84 51.128 203.224 50.76C203.624 50.376 204.12 50.184 204.712 50.184C205.304 50.184 205.792 50.376 206.176 50.76C206.576 51.128 206.776 51.592 206.776 52.152C206.776 52.712 206.576 53.184 206.176 53.568C205.792 53.936 205.304 54.12 204.712 54.12ZM206.368 55.704V69H203.008V55.704H206.368ZM213.047 57.624C213.479 57.016 214.071 56.512 214.823 56.112C215.591 55.696 216.463 55.488 217.439 55.488C218.575 55.488 219.599 55.768 220.511 56.328C221.439 56.888 222.167 57.688 222.695 58.728C223.239 59.752 223.511 60.944 223.511 62.304C223.511 63.664 223.239 64.872 222.695 65.928C222.167 66.968 221.439 67.776 220.511 68.352C219.599 68.928 218.575 69.216 217.439 69.216C216.463 69.216 215.599 69.016 214.847 68.616C214.111 68.216 213.511 67.712 213.047 67.104V75.336H209.687V55.704H213.047V57.624ZM220.079 62.304C220.079 61.504 219.911 60.816 219.575 60.24C219.255 59.648 218.823 59.2 218.279 58.896C217.751 58.592 217.175 58.44 216.551 58.44C215.943 58.44 215.367 58.6 214.823 58.92C214.295 59.224 213.863 59.672 213.527 60.264C213.207 60.856 213.047 61.552 213.047 62.352C213.047 63.152 213.207 63.848 213.527 64.44C213.863 65.032 214.295 65.488 214.823 65.808C215.367 66.112 215.943 66.264 216.551 66.264C217.175 66.264 217.751 66.104 218.279 65.784C218.823 65.464 219.255 65.008 219.575 64.416C219.911 63.824 220.079 63.12 220.079 62.304ZM229.865 58.464V64.896C229.865 65.344 229.969 65.672 230.177 65.88C230.401 66.072 230.769 66.168 231.281 66.168H232.841V69H230.729C227.897 69 226.481 67.624 226.481 64.872V58.464H224.897V55.704H226.481V52.416H229.865V55.704H232.841V58.464H229.865Z" fill="white"/>
<defs>
<filter id="filter0_d_241_87" x="0" y="0" width="130" height="130" filterUnits="userSpaceOnUse" color-interpolation-filters="sRGB">
<feFlood flood-opacity="0" result="BackgroundImageFix"/>
<feColorMatrix in="SourceAlpha" type="matrix" values="0 0 0 0 0 0 0 0 0 0 0 0 0 0 0 0 0 0 127 0" result="hardAlpha"/>
<feOffset dy="4"/>
<feGaussianBlur stdDeviation="20"/>
<feComposite in2="hardAlpha" operator="out"/>
<feColorMatrix type="matrix" values="0 0 0 0 0.0367917 0 0 0 0 0.0348958 0 0 0 0 0.0484375 0 0 0 0.1 0"/>
<feBlend mode="normal" in2="BackgroundImageFix" result="effect1_dropShadow_241_87"/>
<feBlend mode="normal" in="SourceGraphic" in2="effect1_dropShadow_241_87" result="shape"/>
</filter>
</defs>
</svg>
