<svg width="187" height="130" viewBox="0 0 187 130" fill="none" xmlns="http://www.w3.org/2000/svg">
<rect x="31" y="27" width="156" height="68" rx="18" fill="#434343"/>
<g filter="url(#filter0_d_241_145)">
<rect x="40" y="36" width="50" height="50" rx="10" fill="white"/>
<path d="M64.9729 68.82C72.0525 78.4711 78.9809 66.1263 78.9707 58.7025C78.9588 49.9255 70.0625 45.02 64.9671 45.02C56.7886 45.0199 49 51.779 49 61.027C49 71.3063 57.9281 77.0001 64.9671 77.0001C63.3743 76.7707 58.0659 75.6333 57.9946 63.4067C57.9465 55.1374 60.6921 51.8335 64.9556 53.2869C65.0511 53.3223 69.6584 55.1398 69.6584 61.0769C69.6584 66.9889 64.9729 68.8199 64.9729 68.8199V68.82Z" fill="url(#paint0_linear_241_145)"/>
<path d="M64.9647 53.2801C60.2867 51.6677 54.556 55.5233 54.556 63.2458C54.556 75.8555 63.9002 77 65.0329 77C73.2114 77 81.0001 70.2407 81.0001 60.9928C81.0001 50.7136 72.0719 45.0198 65.0329 45.0198C66.9825 44.7498 75.5411 47.1298 75.5411 58.8271C75.5411 66.4553 69.1506 70.6081 64.994 68.8338C64.8985 68.7985 60.2912 66.981 60.2912 61.0438C60.2912 55.1317 64.9647 53.2801 64.9647 53.2801V53.2801Z" fill="url(#paint1_linear_241_145)"/>
<rect x="40.5" y="36.5" width="49" height="49" rx="9.5" stroke="white"/>
</g>
<path d="M113.424 52.248V64.008C113.424 65.64 112.952 66.912 112.008 67.824C111.064 68.72 109.8 69.168 108.216 69.168C106.616 69.168 105.32 68.704 104.328 67.776C103.352 66.848 102.864 65.552 102.864 63.888H106.224C106.24 64.608 106.408 65.168 106.728 65.568C107.064 65.968 107.544 66.168 108.168 66.168C108.776 66.168 109.24 65.976 109.56 65.592C109.88 65.208 110.04 64.68 110.04 64.008V52.248H113.424ZM123.128 69.168C121.96 69.168 120.904 68.968 119.96 68.568C119.032 68.168 118.296 67.592 117.752 66.84C117.208 66.088 116.928 65.2 116.912 64.176H120.512C120.56 64.864 120.8 65.408 121.232 65.808C121.68 66.208 122.288 66.408 123.056 66.408C123.84 66.408 124.456 66.224 124.904 65.856C125.352 65.472 125.576 64.976 125.576 64.368C125.576 63.872 125.424 63.464 125.12 63.144C124.816 62.824 124.432 62.576 123.968 62.4C123.52 62.208 122.896 62 122.096 61.776C121.008 61.456 120.12 61.144 119.432 60.84C118.76 60.52 118.176 60.048 117.68 59.424C117.2 58.784 116.96 57.936 116.96 56.88C116.96 55.888 117.208 55.024 117.704 54.288C118.2 53.552 118.896 52.992 119.792 52.608C120.688 52.208 121.712 52.008 122.864 52.008C124.592 52.008 125.992 52.432 127.064 53.28C128.152 54.112 128.752 55.28 128.864 56.784H125.168C125.136 56.208 124.888 55.736 124.424 55.368C123.976 54.984 123.376 54.792 122.624 54.792C121.968 54.792 121.44 54.96 121.04 55.296C120.656 55.632 120.464 56.12 120.464 56.76C120.464 57.208 120.608 57.584 120.896 57.888C121.2 58.176 121.568 58.416 122 58.608C122.448 58.784 123.072 58.992 123.872 59.232C124.96 59.552 125.848 59.872 126.536 60.192C127.224 60.512 127.816 60.992 128.312 61.632C128.808 62.272 129.056 63.112 129.056 64.152C129.056 65.048 128.824 65.88 128.359 66.648C127.896 67.416 127.216 68.032 126.32 68.496C125.424 68.944 124.36 69.168 123.128 69.168ZM139.745 69.168C138.177 69.168 136.737 68.8 135.425 68.064C134.113 67.328 133.073 66.312 132.305 65.016C131.537 63.704 131.153 62.224 131.153 60.576C131.153 58.944 131.537 57.48 132.305 56.184C133.073 54.872 134.113 53.848 135.425 53.112C136.737 52.376 138.177 52.008 139.745 52.008C141.329 52.008 142.769 52.376 144.065 53.112C145.377 53.848 146.409 54.872 147.161 56.184C147.929 57.48 148.313 58.944 148.313 60.576C148.313 62.224 147.929 63.704 147.161 65.016C146.409 66.312 145.377 67.328 144.065 68.064C142.753 68.8 141.313 69.168 139.745 69.168ZM139.745 66.168C140.753 66.168 141.641 65.944 142.409 65.496C143.177 65.032 143.777 64.376 144.209 63.528C144.641 62.68 144.857 61.696 144.857 60.576C144.857 59.456 144.641 58.48 144.209 57.648C143.777 56.8 143.177 56.152 142.409 55.704C141.641 55.256 140.753 55.032 139.745 55.032C138.737 55.032 137.841 55.256 137.057 55.704C136.289 56.152 135.689 56.8 135.257 57.648C134.825 58.48 134.609 59.456 134.609 60.576C134.609 61.696 134.825 62.68 135.257 63.528C135.689 64.376 136.289 65.032 137.057 65.496C137.841 65.944 138.737 66.168 139.745 66.168ZM165.14 69H161.78L154.172 57.504V69H150.812V52.224H154.172L161.78 63.744V52.224H165.14V69Z" fill="white"/>
<defs>
<filter id="filter0_d_241_145" x="0" y="0" width="130" height="130" filterUnits="userSpaceOnUse" color-interpolation-filters="sRGB">
<feFlood flood-opacity="0" result="BackgroundImageFix"/>
<feColorMatrix in="SourceAlpha" type="matrix" values="0 0 0 0 0 0 0 0 0 0 0 0 0 0 0 0 0 0 127 0" result="hardAlpha"/>
<feOffset dy="4"/>
<feGaussianBlur stdDeviation="20"/>
<feComposite in2="hardAlpha" operator="out"/>
<feColorMatrix type="matrix" values="0 0 0 0 0.0367917 0 0 0 0 0.0348958 0 0 0 0 0.0484375 0 0 0 0.1 0"/>
<feBlend mode="normal" in2="BackgroundImageFix" result="effect1_dropShadow_241_145"/>
<feBlend mode="normal" in="SourceGraphic" in2="effect1_dropShadow_241_145" result="shape"/>
</filter>
<linearGradient id="paint0_linear_241_145" x1="53.7327" y1="49.7329" x2="77.6365" y2="70.727" gradientUnits="userSpaceOnUse">
<stop/>
<stop offset="1" stop-color="white"/>
</linearGradient>
<linearGradient id="paint1_linear_241_145" x1="76.2761" y1="72.2758" x2="50.4037" y2="54.6078" gradientUnits="userSpaceOnUse">
<stop/>
<stop offset="1" stop-color="white"/>
</linearGradient>
</defs>
</svg>
