<svg width="218" height="130" viewBox="0 0 218 130" fill="none" xmlns="http://www.w3.org/2000/svg">
<rect x="31" y="27" width="187" height="68" rx="18" fill="#434343"/>
<g filter="url(#filter0_d_241_124)">
<rect x="40" y="36" width="50" height="50" rx="10" fill="white"/>
<path d="M47.3411 55.3674C47.3411 55.3674 46.4679 54.738 47.5157 53.8976L49.9569 51.7147C49.9569 51.7147 50.6554 50.9798 51.3939 51.6201L73.921 68.6755V76.8539C73.921 76.8539 73.9101 78.1382 72.262 77.9963L47.3411 55.3674Z" fill="#2489CA"/>
<path d="M53.1474 60.6389L47.341 65.9178C47.341 65.9178 46.7444 66.3616 47.341 67.1547L50.0369 69.6068C50.0369 69.6068 50.6772 70.2944 51.6231 69.5122L57.7787 64.8445L53.1474 60.6389Z" fill="#1070B3"/>
<path d="M63.3415 60.6826L73.9902 52.5515L73.9211 44.4167C73.9211 44.4167 73.4663 42.6413 71.9492 43.5654L57.7788 56.4624L63.3415 60.6826Z" fill="#0877B9"/>
<path d="M72.2621 78.0072C72.8806 78.6402 73.63 78.4328 73.63 78.4328L81.9285 74.3436C82.9908 73.6196 82.8417 72.721 82.8417 72.721V48.3021C82.8417 47.2289 81.743 46.8578 81.743 46.8578L74.5505 43.3907C72.9788 42.4193 71.9492 43.5653 71.9492 43.5653C71.9492 43.5653 73.2735 42.6121 73.9211 44.4166V76.7047C73.9211 76.9267 73.8738 77.145 73.7792 77.3414C73.59 77.7234 73.1789 78.0799 72.193 77.9308L72.2621 78.0072Z" fill="#3C99D4"/>
<rect x="40.5" y="36.5" width="49" height="49" rx="9.5" stroke="white"/>
</g>
<path d="M118.704 52.248L112.56 69H108.48L102.336 52.248H105.936L110.544 65.568L115.128 52.248H118.704ZM126.503 69.168C125.335 69.168 124.279 68.968 123.335 68.568C122.407 68.168 121.671 67.592 121.127 66.84C120.583 66.088 120.303 65.2 120.287 64.176H123.887C123.935 64.864 124.175 65.408 124.607 65.808C125.055 66.208 125.663 66.408 126.431 66.408C127.215 66.408 127.831 66.224 128.279 65.856C128.727 65.472 128.951 64.976 128.951 64.368C128.951 63.872 128.799 63.464 128.495 63.144C128.191 62.824 127.807 62.576 127.343 62.4C126.895 62.208 126.271 62 125.471 61.776C124.383 61.456 123.495 61.144 122.807 60.84C122.135 60.52 121.551 60.048 121.055 59.424C120.575 58.784 120.335 57.936 120.335 56.88C120.335 55.888 120.583 55.024 121.079 54.288C121.575 53.552 122.271 52.992 123.167 52.608C124.063 52.208 125.087 52.008 126.239 52.008C127.967 52.008 129.367 52.432 130.439 53.28C131.527 54.112 132.127 55.28 132.239 56.784H128.543C128.511 56.208 128.263 55.736 127.799 55.368C127.351 54.984 126.751 54.792 125.999 54.792C125.343 54.792 124.815 54.96 124.415 55.296C124.031 55.632 123.839 56.12 123.839 56.76C123.839 57.208 123.983 57.584 124.271 57.888C124.575 58.176 124.943 58.416 125.375 58.608C125.823 58.784 126.447 58.992 127.247 59.232C128.335 59.552 129.223 59.872 129.911 60.192C130.599 60.512 131.191 60.992 131.687 61.632C132.183 62.272 132.431 63.112 132.431 64.152C132.431 65.048 132.199 65.88 131.734 66.648C131.271 67.416 130.591 68.032 129.695 68.496C128.799 68.944 127.735 69.168 126.503 69.168ZM140.246 60.6C140.246 58.952 140.614 57.48 141.35 56.184C142.102 54.872 143.118 53.856 144.398 53.136C145.694 52.4 147.142 52.032 148.742 52.032C150.614 52.032 152.254 52.512 153.662 53.472C155.07 54.432 156.054 55.76 156.614 57.456H152.75C152.366 56.656 151.822 56.056 151.118 55.656C150.43 55.256 149.63 55.056 148.718 55.056C147.742 55.056 146.87 55.288 146.102 55.752C145.35 56.2 144.758 56.84 144.326 57.672C143.91 58.504 143.702 59.48 143.702 60.6C143.702 61.704 143.91 62.68 144.326 63.528C144.758 64.36 145.35 65.008 146.102 65.472C146.87 65.92 147.742 66.144 148.718 66.144C149.63 66.144 150.43 65.944 151.118 65.544C151.822 65.128 152.366 64.52 152.75 63.72H156.614C156.054 65.432 155.07 66.768 153.662 67.728C152.27 68.672 150.63 69.144 148.742 69.144C147.142 69.144 145.694 68.784 144.398 68.064C143.118 67.328 142.102 66.312 141.35 65.016C140.614 63.72 140.246 62.248 140.246 60.6ZM165.388 69.216C164.108 69.216 162.956 68.936 161.932 68.376C160.908 67.8 160.1 66.992 159.508 65.952C158.932 64.912 158.644 63.712 158.644 62.352C158.644 60.992 158.94 59.792 159.532 58.752C160.14 57.712 160.964 56.912 162.004 56.352C163.044 55.776 164.204 55.488 165.484 55.488C166.764 55.488 167.924 55.776 168.964 56.352C170.004 56.912 170.82 57.712 171.412 58.752C172.02 59.792 172.324 60.992 172.324 62.352C172.324 63.712 172.012 64.912 171.388 65.952C170.78 66.992 169.948 67.8 168.892 68.376C167.852 68.936 166.684 69.216 165.388 69.216ZM165.388 66.288C165.996 66.288 166.564 66.144 167.092 65.856C167.636 65.552 168.068 65.104 168.388 64.512C168.708 63.92 168.868 63.2 168.868 62.352C168.868 61.088 168.532 60.12 167.86 59.448C167.204 58.76 166.396 58.416 165.436 58.416C164.476 58.416 163.668 58.76 163.012 59.448C162.372 60.12 162.052 61.088 162.052 62.352C162.052 63.616 162.364 64.592 162.988 65.28C163.628 65.952 164.428 66.288 165.388 66.288ZM173.925 62.304C173.925 60.96 174.189 59.768 174.717 58.728C175.261 57.688 175.997 56.888 176.925 56.328C177.853 55.768 178.885 55.488 180.021 55.488C180.885 55.488 181.709 55.68 182.493 56.064C183.277 56.432 183.901 56.928 184.365 57.552V51.24H187.773V69H184.365V67.032C183.949 67.688 183.365 68.216 182.613 68.616C181.861 69.016 180.989 69.216 179.997 69.216C178.877 69.216 177.853 68.928 176.925 68.352C175.997 67.776 175.261 66.968 174.717 65.928C174.189 64.872 173.925 63.664 173.925 62.304ZM184.389 62.352C184.389 61.536 184.229 60.84 183.909 60.264C183.589 59.672 183.157 59.224 182.613 58.92C182.069 58.6 181.485 58.44 180.861 58.44C180.237 58.44 179.661 58.592 179.133 58.896C178.605 59.2 178.173 59.648 177.837 60.24C177.517 60.816 177.357 61.504 177.357 62.304C177.357 63.104 177.517 63.808 177.837 64.416C178.173 65.008 178.605 65.464 179.133 65.784C179.677 66.104 180.253 66.264 180.861 66.264C181.485 66.264 182.069 66.112 182.613 65.808C183.157 65.488 183.589 65.04 183.909 64.464C184.229 63.872 184.389 63.168 184.389 62.352ZM203.414 62.064C203.414 62.544 203.382 62.976 203.318 63.36H193.598C193.678 64.32 194.014 65.072 194.606 65.616C195.198 66.16 195.926 66.432 196.79 66.432C198.038 66.432 198.926 65.896 199.454 64.824H203.078C202.694 66.104 201.958 67.16 200.87 67.992C199.782 68.808 198.446 69.216 196.862 69.216C195.582 69.216 194.43 68.936 193.406 68.376C192.398 67.8 191.606 66.992 191.03 65.952C190.47 64.912 190.19 63.712 190.19 62.352C190.19 60.976 190.47 59.768 191.03 58.728C191.59 57.688 192.374 56.888 193.382 56.328C194.39 55.768 195.55 55.488 196.862 55.488C198.126 55.488 199.254 55.76 200.246 56.304C201.254 56.848 202.03 57.624 202.574 58.632C203.134 59.624 203.414 60.768 203.414 62.064ZM199.934 61.104C199.918 60.24 199.606 59.552 198.998 59.04C198.39 58.512 197.646 58.248 196.766 58.248C195.934 58.248 195.23 58.504 194.654 59.016C194.094 59.512 193.75 60.208 193.622 61.104H199.934Z" fill="white"/>
<defs>
<filter id="filter0_d_241_124" x="0" y="0" width="130" height="130" filterUnits="userSpaceOnUse" color-interpolation-filters="sRGB">
<feFlood flood-opacity="0" result="BackgroundImageFix"/>
<feColorMatrix in="SourceAlpha" type="matrix" values="0 0 0 0 0 0 0 0 0 0 0 0 0 0 0 0 0 0 127 0" result="hardAlpha"/>
<feOffset dy="4"/>
<feGaussianBlur stdDeviation="20"/>
<feComposite in2="hardAlpha" operator="out"/>
<feColorMatrix type="matrix" values="0 0 0 0 0.0367917 0 0 0 0 0.0348958 0 0 0 0 0.0484375 0 0 0 0.1 0"/>
<feBlend mode="normal" in2="BackgroundImageFix" result="effect1_dropShadow_241_124"/>
<feBlend mode="normal" in="SourceGraphic" in2="effect1_dropShadow_241_124" result="shape"/>
</filter>
</defs>
</svg>
